{"asset":{"version":"2.0","generator":"THREE.GLTFExporter r175"},"scenes":[{"name":"AuxScene","nodes":[9]}],"scene":0,"nodes":[{"mesh":0},{"mesh":1},{"mesh":2},{"mesh":3},{"mesh":4},{"matrix":[0.8089263395450876,0,-0.8089263395450877,0,0,-1.1439946003454864,0,0,0.8089263395450877,0,0.8089263395450876,0,0,0,0,1],"children":[0,1,2,3,4]},{"children":[5]},{"matrix":[1,0,0,0,0,1,0,0,0,0,1,0,-229.44548332237372,21.647241796271164,226.20977815705652,1],"children":[6]},{"children":[7]},{"children":[8]}],"bufferViews":[{"buffer":0,"byteOffset":0,"byteLength":51696,"target":34962,"byteStride":12},{"buffer":0,"byteOffset":51696,"byteLength":34464,"target":34962,"byteStride":8},{"buffer":0,"byteOffset":86160,"byteLength":51696,"target":34962,"byteStride":12},{"buffer":0,"byteOffset":137856,"byteLength":208080,"target":34962,"byteStride":12},{"buffer":0,"byteOffset":345936,"byteLength":138720,"target":34962,"byteStride":8},{"buffer":0,"byteOffset":484656,"byteLength":208080,"target":34962,"byteStride":12},{"buffer":0,"byteOffset":692736,"byteLength":11376,"target":34962,"byteStride":12},{"buffer":0,"byteOffset":704112,"byteLength":7584,"target":34962,"byteStride":8},{"buffer":0,"byteOffset":711696,"byteLength":11376,"target":34962,"byteStride":12},{"buffer":0,"byteOffset":723072,"byteLength":11376,"target":34962,"byteStride":12},{"buffer":0,"byteOffset":734448,"byteLength":7584,"target":34962,"byteStride":8},{"buffer":0,"byteOffset":742032,"byteLength":11376,"target":34962,"byteStride":12},{"buffer":0,"byteOffset":753408,"byteLength":11376,"target":34962,"byteStride":12},{"buffer":0,"byteOffset":764784,"byteLength":7584,"target":34962,"byteStride":8},{"buffer":0,"byteOffset":772368,"byteLength":11376,"target":34962,"byteStride":12}],"buffers":[{"byteLength":783744,"uri":"data:application/octet-stream;base64,"}],"accessors":[{"bufferView":0,"componentType":5126,"count":4308,"max":[297.23748779296875,40.719017028808594,4.599999904632568],"min":[265.9613037109375,26.317691802978516,-0.6000000238418579],"type":"VEC3"},{"bufferView":1,"componentType":5126,"count":4308,"max":[296.951171875,40.416500091552734],"min":[28.457992553710938,-3.5999999046325684],"type":"VEC2"},{"bufferView":2,"componentType":5126,"count":4308,"max":[0.9998164772987366,0.9945629835128784,1],"min":[-0.9998390674591064,-0.9999446868896484,-1],"type":"VEC3"},{"bufferView":3,"componentType":5126,"count":17340,"max":[322.8420104980469,62.929134368896484,4.599999904632568],"min":[240.44200134277344,-25.08412742614746,-0.6000000238418579],"type":"VEC3"},{"bufferView":4,"componentType":5126,"count":17340,"max":[322.5419921875,62.62900161743164],"min":[-23.469072341918945,-24.78350067138672],"type":"VEC2"},{"bufferView":5,"componentType":5126,"count":17340,"max":[1,0.99955815076828,1],"min":[-1,-1,-1],"type":"VEC3"},{"bufferView":6,"componentType":5126,"count":948,"max":[285.4478759765625,25.434877395629883,4.599999904632568],"min":[281.4361267089844,21.42312240600586,-0.6000000238418579],"type":"VEC3"},{"bufferView":7,"componentType":5126,"count":948,"max":[285.1419982910156,25.128999710083008],"min":[22.010629653930664,-3.5999999046325684],"type":"VEC2"},{"bufferView":8,"componentType":5126,"count":948,"max":[0.980787456035614,0.9807862639427185,1],"min":[-0.980787456035614,-0.9807862639427185,-1],"type":"VEC3"},{"bufferView":9,"componentType":5126,"count":948,"max":[278.5478820800781,22.23487663269043,4.599999904632568],"min":[273.1361083984375,16.823122024536133,-0.6000000238418579],"type":"VEC3"},{"bufferView":10,"componentType":5126,"count":948,"max":[278.24200439453125,21.929000854492188],"min":[17.61565589904785,-3.5999999046325684],"type":"VEC2"},{"bufferView":11,"componentType":5126,"count":948,"max":[0.9807870388031006,0.9807851910591125,1],"min":[-0.9807814955711365,-0.9807851910591125,-1],"type":"VEC3"},{"bufferView":12,"componentType":5126,"count":948,"max":[284.3478698730469,14.934877395629883,4.599999904632568],"min":[276.9361267089844,7.523122787475586,-0.6000000238418579],"type":"VEC3"},{"bufferView":13,"componentType":5126,"count":948,"max":[284.0419921875,14.628999710083008],"min":[8.608549118041992,-3.5999999046325684],"type":"VEC2"},{"bufferView":14,"componentType":5126,"count":948,"max":[0.9807878136634827,0.9807854294776917,1],"min":[-0.9807878136634827,-0.9807854294776917,-1],"type":"VEC3"}],"materials":[{"pbrMetallicRoughness":{"baseColorFactor":[0.6375968739867731,0.6653872982754769,0.7083757798856457,1],"metallicFactor":0,"roughnessFactor":0.3},"doubleSided":true,"extensions":{"KHR_materials_transmission":{"transmissionFactor":1},"KHR_materials_volume":{"thicknessFactor":0,"attenuationColor":[1,1,1]}}}],"meshes":[{"primitives":[{"mode":4,"attributes":{"POSITION":0,"TEXCOORD_0":1,"NORMAL":2},"material":0}]},{"primitives":[{"mode":4,"attributes":{"POSITION":3,"TEXCOORD_0":4,"NORMAL":5},"material":0}]},{"primitives":[{"mode":4,"attributes":{"POSITION":6,"TEXCOORD_0":7,"NORMAL":8},"material":0}]},{"primitives":[{"mode":4,"attributes":{"POSITION":9,"TEXCOORD_0":10,"NORMAL":11},"material":0}]},{"primitives":[{"mode":4,"attributes":{"POSITION":12,"TEXCOORD_0":13,"NORMAL":14},"material":0}]}],"extensionsUsed":["KHR_materials_transmission","KHR_materials_volume"]}